<?xml version="1.0" standalone="no"?>
<!DOCTYPE svg PUBLIC "-//W3C//DTD SVG 20010904//EN"
 "http://www.w3.org/TR/2001/REC-SVG-20010904/DTD/svg10.dtd">
<svg version="1.0" xmlns="http://www.w3.org/2000/svg"
 width="124.000000pt" height="124.000000pt" viewBox="0 0 124.000000 124.000000"
 preserveAspectRatio="xMidYMid meet">
<metadata>
Created by potrace 1.11, written by Peter Selinger 2001-2013
</metadata>
<g transform="translate(0.000000,124.000000) scale(0.100000,-0.100000)"
fill="#000000" stroke="none">
<path d="M533 1215 c-230 -49 -395 -196 -469 -415 -29 -87 -25 -253 9 -348 68
-195 222 -338 422 -393 65 -17 96 -20 175 -16 111 6 168 23 339 101 68 31 126
55 128 52 4 -4 -167 -90 -250 -125 -23 -10 -75 -26 -114 -36 -93 -22 -95 -38
-5 -30 93 9 169 29 292 79 58 24 122 49 143 55 33 11 37 16 37 48 0 33 -2 35
-27 30 -16 -3 -37 -9 -48 -13 -12 -4 -17 -3 -12 2 5 5 25 14 45 19 l37 11 3
63 3 63 -33 -7 c-42 -10 -204 -72 -232 -90 -32 -20 -66 -28 -66 -16 0 6 4 11
10 11 5 0 51 20 102 44 l93 45 32 68 c54 118 69 225 48 346 -38 211 -191 382
-397 441 -75 22 -190 27 -265 11z m-388 -497 c0 -104 3 -132 23 -182 42 -108
133 -220 220 -271 18 -11 32 -28 32 -38 0 -17 -3 -17 -42 5 -55 31 -147 122
-181 181 -64 110 -89 252 -65 372 6 30 11 55 12 55 0 0 1 -55 1 -122z m647
-447 c5 -1 7 -19 6 -41 -1 -34 -5 -41 -31 -50 -17 -5 -32 -10 -33 -10 -2 0 -4
22 -4 49 0 49 9 61 40 55 8 -1 18 -3 22 -3z m-229 -76 c31 -8 31 -32 1 -27
-48 7 -64 13 -64 27 0 14 8 14 63 0z"/>
<path d="M675 10 c3 -5 8 -10 11 -10 2 0 4 5 4 10 0 6 -5 10 -11 10 -5 0 -7
-4 -4 -10z"/>
</g>
</svg>
